<?xml version="1.0" encoding="utf-8"?>
<!-- Generator: Adobe Illustrator 23.1.0, SVG Export Plug-In . SVG Version: 6.00 Build 0)  -->
<svg version="1.1" id="Layer_1" xmlns="http://www.w3.org/2000/svg" xmlns:xlink="http://www.w3.org/1999/xlink" x="0px" y="0px"
	 viewBox="0 0 512 512" style="enable-background:new 0 0 512 512;" xml:space="preserve">
<style type="text/css">
	.st0{fill:#FFFFFF;}
</style>
<g>
	<path d="M481.3,203.7l-25.4-7.6c-24.4-7.3-37.2-34.1-27.5-57.7l10.1-24.5C454,76.6,414,40.5,378.4,59.7l-23.3,12.6
		c-22.4,12.1-50.4,2.2-60.2-21.3l-10.2-24.5c-15.5-37.4-69.4-34.6-81,4.2l-7.6,25.4c-7.3,24.4-34.1,37.2-57.7,27.5L114,73.5
		C76.6,58,40.5,98.1,59.7,133.7L72.3,157c12.1,22.4,2.2,50.4-21.3,60.2l-24.5,10.2c-37.4,15.5-34.6,69.4,4.2,81l25.4,7.6
		c24.4,7.3,37.2,34.1,27.5,57.7l-10.1,24.5c-15.5,37.4,24.6,73.5,60.2,54.3l23.3-12.6c22.4-12.1,50.4-2.2,60.2,21.3l10.2,24.5
		c15.5,37.4,69.4,34.6,81-4.2l7.6-25.4c7.3-24.4,34.1-37.2,57.7-27.5l24.5,10.1c37.4,15.5,73.5-24.6,54.3-60.2L439.7,355
		c-12.1-22.4-2.2-50.4,21.3-60.2l24.5-10.2C522.9,269.2,520.1,215.3,481.3,203.7z M393.7,183.2l-171,171c-1.2,1.7-2.7,3.2-4.4,4.4
		c-5.6,4-12.7,4.6-18.7,2.2c-0.3-0.1-0.6-0.3-0.9-0.4c-0.1-0.1-0.3-0.1-0.4-0.2c-2-0.9-3.8-2.2-5.4-3.8l0,0
		c-1.3-1.3-2.3-2.7-3.2-4.3l-73.4-102.4c-6.3-8.8-4.2-21.1,4.5-27.3s21.1-4.2,27.3,4.5l61.2,85.4L366,155.5c7.6-7.6,20.1-7.6,27.7,0
		l0,0C401.4,163.1,401.4,175.6,393.7,183.2z"/>
	<path class="st0" d="M199.6,360.8c6,2.4,13.1,1.8,18.7-2.2c1.8-1.3,3.2-2.8,4.4-4.4l-2.2,2.2C214.9,362,206.6,363.5,199.6,360.8z"
		/>
	<path class="st0" d="M198.6,360.4c-0.1-0.1-0.3-0.1-0.4-0.2C198.3,360.3,198.5,360.3,198.6,360.4z"/>
	<path class="st0" d="M199.6,360.8c-0.3-0.1-0.6-0.3-0.9-0.4C198.9,360.5,199.3,360.7,199.6,360.8z"/>
	<path class="st0" d="M191,354.1l-1.4-1.9c0.9,1.5,1.9,3,3.2,4.3l0,0c1.6,1.6,3.5,2.9,5.4,3.8C195.4,358.8,192.9,356.8,191,354.1z"
		/>
</g>
</svg>
